<?xml version="1.0" encoding="utf-8"?>
<!-- Generator: Adobe Illustrator 18.1.0, SVG Export Plug-In . SVG Version: 6.00 Build 0)  -->
<svg version="1.1" id="sub-background-texture" xmlns="http://www.w3.org/2000/svg" xmlns:xlink="http://www.w3.org/1999/xlink" x="0px" y="0px"
	 viewBox="0 0 720 720" height="720" width="720" enable-background="new 0 0 720 720" xml:space="preserve">
<g opacity="0.27">
	<g>
		<g opacity="0.67">
			<g>
				<defs>
					<filter id="Adobe_OpacityMaskFilter" filterUnits="userSpaceOnUse" x="71.1" y="186.4" width="300.5" height="406.5">
						<feFlood  style="flood-color:white;flood-opacity:1" result="back"/>
						<feBlend  in="SourceGraphic" in2="back" mode="normal"/>
					</filter>
				</defs>
				<mask maskUnits="userSpaceOnUse" x="71.1" y="186.4" width="300.5" height="406.5" id="SVGID_1_">
					<g filter="url(#Adobe_OpacityMaskFilter)">
						
							<linearGradient id="SVGID_2_" gradientUnits="userSpaceOnUse" x1="-70.6693" y1="793.0051" x2="-70.0965" y2="793.0051" gradientTransform="matrix(0 -416.8529 -416.8529 0 330787.8438 -28949.2578)">
							<stop  offset="0" style="stop-color:#FFFFFF"/>
							<stop  offset="1" style="stop-color:#000000"/>
						</linearGradient>
						<rect x="61.3" y="179" fill="url(#SVGID_2_)" width="320" height="414.5"/>
					</g>
				</mask>
				<g mask="url(#SVGID_1_)">
					<g>
						<g opacity="0.7">
							<g>
								<polygon points="228.8,206.6 155.5,186.4 155.5,286.4 228.8,306.6 								"/>
							</g>
						</g>
						<g>
							<g>
								<polygon points="289.4,310.7 216,290.5 216,390.4 289.4,410.6 								"/>
							</g>
						</g>
						<g opacity="0.71">
							<g>
								<polygon points="204.8,366.3 131.5,346 131.5,510 204.8,530.2 								"/>
							</g>
						</g>
						<g opacity="0.73">
							<g>
								<polygon points="264.6,428.9 191.3,408.7 191.3,572.7 264.6,592.9 								"/>
							</g>
						</g>
						<g opacity="0.74">
							<g>
								<polygon points="289.4,398.2 216,378 216,542 289.4,562.2 								"/>
							</g>
						</g>
						<g>
							<g>
								<polygon points="371.6,297.8 298.3,277.6 298.3,351.3 371.6,371.5 								"/>
							</g>
						</g>
						<g opacity="0.79">
							<g>
								<polygon points="157.1,292.8 83.8,272.6 83.8,391 157.1,411.2 								"/>
							</g>
						</g>
						<g opacity="0.76">
							<g>
								<polygon points="144.4,394.3 71.1,374.1 71.1,492.4 144.4,512.6 								"/>
							</g>
						</g>
					</g>
				</g>
			</g>
		</g>
	</g>
</g>
<g opacity="0.27">
	<g>
		<g opacity="0.67">
			<g>
				<defs>
					<filter id="Adobe_OpacityMaskFilter_1_" filterUnits="userSpaceOnUse" x="323.6" y="23.3" width="300.5" height="406.5">
						<feFlood  style="flood-color:white;flood-opacity:1" result="back"/>
						<feBlend  in="SourceGraphic" in2="back" mode="normal"/>
					</filter>
				</defs>
				<mask maskUnits="userSpaceOnUse" x="323.6" y="23.3" width="300.5" height="406.5" id="SVGID_3_">
					<g filter="url(#Adobe_OpacityMaskFilter_1_)">
						
							<linearGradient id="SVGID_4_" gradientUnits="userSpaceOnUse" x1="-70.2779" y1="792.3994" x2="-69.7051" y2="792.3994" gradientTransform="matrix(0 -416.8529 -416.8529 0 330787.8438 -28949.2578)">
							<stop  offset="0" style="stop-color:#FFFFFF"/>
							<stop  offset="1" style="stop-color:#000000"/>
						</linearGradient>
						<rect x="313.8" y="15.8" fill="url(#SVGID_4_)" width="320" height="414.5"/>
					</g>
				</mask>
				<g mask="url(#SVGID_3_)">
					<g>
						<g opacity="0.7">
							<g>
								<polygon points="481.3,43.5 408,23.3 408,123.3 481.3,143.5 								"/>
							</g>
						</g>
						<g>
							<g>
								<polygon points="541.9,147.5 468.6,127.3 468.6,227.3 541.9,247.5 								"/>
							</g>
						</g>
						<g opacity="0.71">
							<g>
								<polygon points="457.3,203.1 384,182.9 384,346.9 457.3,367.1 								"/>
							</g>
						</g>
						<g opacity="0.73">
							<g>
								<polygon points="517.1,265.8 443.8,245.6 443.8,409.5 517.1,429.8 								"/>
							</g>
						</g>
						<g opacity="0.74">
							<g>
								<polygon points="541.9,235.1 468.6,214.9 468.6,378.8 541.9,399 								"/>
							</g>
						</g>
						<g>
							<g>
								<polygon points="624.1,134.6 550.8,114.4 550.8,188.2 624.1,208.4 								"/>
							</g>
						</g>
						<g opacity="0.79">
							<g>
								<polygon points="409.6,129.7 336.3,109.5 336.3,227.9 409.6,248.1 								"/>
							</g>
						</g>
						<g opacity="0.76">
							<g>
								<polygon points="396.9,231.1 323.6,210.9 323.6,329.3 396.9,349.5 								"/>
							</g>
						</g>
					</g>
				</g>
			</g>
		</g>
	</g>
</g>
<g opacity="0.27">
	<g>
		<g opacity="0.67">
			<g>
				<defs>
					<filter id="Adobe_OpacityMaskFilter_2_" filterUnits="userSpaceOnUse" x="307.1" y="296.1" width="300.5" height="406.5">
						<feFlood  style="flood-color:white;flood-opacity:1" result="back"/>
						<feBlend  in="SourceGraphic" in2="back" mode="normal"/>
					</filter>
				</defs>
				<mask maskUnits="userSpaceOnUse" x="307.1" y="296.1" width="300.5" height="406.5" id="SVGID_5_">
					<g filter="url(#Adobe_OpacityMaskFilter_2_)">
						
							<linearGradient id="SVGID_6_" gradientUnits="userSpaceOnUse" x1="-70.9324" y1="792.439" x2="-70.3596" y2="792.439" gradientTransform="matrix(0 -416.8529 -416.8529 0 330787.8438 -28949.2578)">
							<stop  offset="0" style="stop-color:#FFFFFF"/>
							<stop  offset="1" style="stop-color:#000000"/>
						</linearGradient>
						<rect x="297.3" y="288.7" fill="url(#SVGID_6_)" width="320" height="414.5"/>
					</g>
				</mask>
				<g mask="url(#SVGID_5_)">
					<g>
						<g opacity="0.7">
							<g>
								<polygon points="464.8,316.3 391.5,296.1 391.5,396.1 464.8,416.3 								"/>
							</g>
						</g>
						<g>
							<g>
								<polygon points="525.4,420.3 452,400.1 452,500.1 525.4,520.3 								"/>
							</g>
						</g>
						<g opacity="0.71">
							<g>
								<polygon points="440.8,475.9 367.5,455.7 367.5,619.7 440.8,639.9 								"/>
							</g>
						</g>
						<g opacity="0.73">
							<g>
								<polygon points="500.6,538.6 427.3,518.4 427.3,682.4 500.6,702.6 								"/>
							</g>
						</g>
						<g opacity="0.74">
							<g>
								<polygon points="525.4,507.9 452,487.7 452,651.6 525.4,671.8 								"/>
							</g>
						</g>
						<g>
							<g>
								<polygon points="607.6,407.5 534.3,387.2 534.3,461 607.6,481.2 								"/>
							</g>
						</g>
						<g opacity="0.79">
							<g>
								<polygon points="393.1,402.5 319.8,382.3 319.8,500.7 393.1,520.9 								"/>
							</g>
						</g>
						<g opacity="0.76">
							<g>
								<polygon points="380.4,504 307.1,483.8 307.1,602.1 380.4,622.3 								"/>
							</g>
						</g>
					</g>
				</g>
			</g>
		</g>
	</g>
</g>
</svg>
